<?xml version="1.0" encoding="utf-8"?>
<!-- Generator: Adobe Illustrator 16.0.0, SVG Export Plug-In . SVG Version: 6.00 Build 0)  -->
<!DOCTYPE svg PUBLIC "-//W3C//DTD SVG 1.1//EN" "http://www.w3.org/Graphics/SVG/1.1/DTD/svg11.dtd">
<svg version="1.1" id="Layer_1" xmlns="http://www.w3.org/2000/svg" xmlns:xlink="http://www.w3.org/1999/xlink" x="0px" y="0px"
	 width="77.125px" height="60.625px" viewBox="0 0 77.125 60.625" enable-background="new 0 0 77.125 60.625" xml:space="preserve">
<polyline fill="none" stroke="#000000" stroke-width="2" stroke-miterlimit="10" points="22.75,14.5 22.75,1.604 10.625,1.604
	10.625,14.5 "/>
<g>
	<path d="M29.125,19.5v38.625H2.583V19.5H29.125 M31.125,17.5H0.583v42.625h30.542V17.5L31.125,17.5z"/>
</g>
<polygon points="3.583,14.5 2.813,16.5 5.583,16.5 31.125,16.5 32.125,16.5 32.125,55.125 31.125,55.125 31.125,57.125
	34.125,57.125 34.125,14.5 "/>
<g>
	<polygon points="11.625,11.5 6.583,11.5 6.583,13.5 8.583,13.5 11.625,13.5 	"/>
	<polygon points="21.854,11.5 21.854,13.5 34.125,13.5 35.125,13.5 35.125,52.125 34.125,52.125 34.125,54.125 37.125,54.125
		37.125,11.5 	"/>
</g>
<path d="M6.583,13.5v-2c-0.203,0.048-4.037,1.266-6,6h1.995C3.729,15.599,4.953,14.109,6.583,13.5z"/>
<text transform="matrix(-4.371139e-008 -1 1 -4.371139e-008 20.4805 9.4653)" font-family="'Roboto-Black'" font-size="10.3537">5</text>
<g>
	<path d="M45.037,39.869h-2.966v1.885h3.496v1.351h-5.256v-7.562h5.266v1.351h-3.506v1.625h2.966V39.869z"/>
	<path d="M45.935,40.306c0-0.876,0.191-1.583,0.574-2.119c0.382-0.537,0.922-0.805,1.618-0.805c0.26,0,0.494,0.06,0.704,0.179
		c0.209,0.12,0.397,0.29,0.563,0.512v-3.069h1.756v8.102h-1.522l-0.125-0.691c-0.173,0.26-0.375,0.458-0.605,0.595
		c-0.23,0.137-0.491,0.205-0.782,0.205c-0.693,0-1.229-0.256-1.61-0.769c-0.381-0.512-0.571-1.189-0.571-2.031V40.306z
		 M47.691,40.415c0,0.457,0.066,0.813,0.2,1.067s0.357,0.382,0.673,0.382c0.183,0,0.345-0.034,0.485-0.102
		c0.14-0.067,0.255-0.167,0.345-0.298v-2.27c-0.09-0.149-0.204-0.263-0.343-0.343c-0.138-0.08-0.298-0.12-0.478-0.12
		c-0.312,0-0.537,0.144-0.675,0.431s-0.208,0.668-0.208,1.143V40.415z"/>
	<path d="M55.518,42.44c-0.18,0.249-0.401,0.44-0.662,0.574s-0.557,0.2-0.885,0.2c-0.582,0-1.038-0.187-1.369-0.561
		c-0.331-0.374-0.496-0.954-0.496-1.74v-3.428h1.75v3.438c0,0.315,0.06,0.55,0.179,0.706c0.12,0.156,0.29,0.234,0.512,0.234
		c0.187,0,0.352-0.026,0.494-0.078c0.142-0.052,0.263-0.13,0.363-0.233v-4.067h1.755v5.62h-1.532L55.518,42.44z"/>
	<path d="M46.2,51.451l0.011,0.031c-0.035,0.886-0.297,1.563-0.787,2.03c-0.49,0.468-1.201,0.701-2.132,0.701
		c-0.935,0-1.695-0.287-2.28-0.862c-0.585-0.575-0.877-1.321-0.877-2.239v-1.579c0-0.914,0.281-1.66,0.844-2.236
		c0.563-0.577,1.294-0.865,2.194-0.865c0.956,0,1.687,0.241,2.192,0.722c0.505,0.481,0.791,1.166,0.857,2.052l-0.01,0.031h-1.709
		c-0.024-0.492-0.134-0.857-0.33-1.096c-0.196-0.239-0.529-0.358-1-0.358c-0.398,0-0.711,0.16-0.94,0.48s-0.343,0.74-0.343,1.26
		v1.589c0,0.523,0.125,0.945,0.374,1.268c0.249,0.322,0.592,0.483,1.028,0.483c0.422,0,0.722-0.112,0.898-0.338
		c0.177-0.225,0.277-0.583,0.301-1.075H46.2z"/>
	<path d="M50.283,54.1c-0.048-0.09-0.093-0.19-0.132-0.301c-0.04-0.11-0.074-0.225-0.102-0.343
		c-0.166,0.232-0.367,0.417-0.602,0.553c-0.236,0.137-0.521,0.205-0.857,0.205c-0.534,0-0.967-0.154-1.301-0.462
		s-0.501-0.719-0.501-1.231c0-0.558,0.208-0.988,0.625-1.291c0.417-0.303,1.052-0.455,1.904-0.455h0.639v-0.4
		c0-0.239-0.056-0.422-0.169-0.551c-0.112-0.128-0.287-0.192-0.522-0.192c-0.201,0-0.351,0.047-0.449,0.143
		c-0.099,0.096-0.148,0.244-0.148,0.444l-1.698-0.005l-0.01-0.031c-0.024-0.512,0.188-0.94,0.639-1.285s1.045-0.517,1.787-0.517
		c0.692,0,1.254,0.173,1.685,0.519c0.431,0.346,0.647,0.841,0.647,1.485v2.119c0,0.301,0.025,0.58,0.075,0.836
		c0.05,0.256,0.125,0.511,0.226,0.764L50.283,54.1z M49.125,52.962c0.173,0,0.333-0.035,0.478-0.104
		c0.145-0.069,0.263-0.159,0.353-0.27v-0.877h-0.623c-0.277,0-0.479,0.067-0.605,0.202c-0.126,0.135-0.189,0.307-0.189,0.514
		c0,0.16,0.055,0.289,0.164,0.387C48.811,52.913,48.951,52.962,49.125,52.962z"/>
	<path d="M55.622,52.526c0-0.138-0.079-0.262-0.236-0.371s-0.444-0.207-0.859-0.293c-0.654-0.128-1.148-0.327-1.48-0.597
		c-0.332-0.27-0.499-0.639-0.499-1.106c0-0.495,0.208-0.915,0.624-1.259s0.978-0.517,1.688-0.517c0.748,0,1.343,0.167,1.787,0.501
		c0.443,0.334,0.654,0.766,0.633,1.296l-0.01,0.031h-1.704c0-0.222-0.056-0.39-0.169-0.504c-0.112-0.114-0.293-0.171-0.542-0.171
		c-0.184,0-0.337,0.05-0.462,0.15c-0.125,0.101-0.187,0.229-0.187,0.384c0,0.149,0.072,0.275,0.216,0.379
		c0.144,0.104,0.434,0.197,0.87,0.28c0.686,0.135,1.194,0.337,1.524,0.605c0.331,0.269,0.496,0.648,0.496,1.14
		c0,0.506-0.224,0.922-0.672,1.249c-0.449,0.327-1.042,0.491-1.779,0.491c-0.766,0-1.371-0.194-1.815-0.582s-0.657-0.82-0.636-1.298
		l0.01-0.031h1.589c0.007,0.267,0.087,0.459,0.242,0.577c0.154,0.118,0.373,0.176,0.657,0.176c0.235,0,0.414-0.045,0.535-0.137
		S55.622,52.696,55.622,52.526z"/>
	<path d="M59.839,49.182c0.169-0.253,0.376-0.45,0.621-0.59s0.513-0.21,0.808-0.21c0.582,0,1.039,0.202,1.371,0.607
		s0.499,1.034,0.499,1.885v3.23h-1.755v-3.241c0-0.429-0.065-0.726-0.195-0.888s-0.328-0.244-0.595-0.244
		c-0.169,0-0.317,0.025-0.441,0.075c-0.125,0.05-0.229,0.121-0.312,0.21v4.087h-1.755v-8.102h1.755V49.182z"/>
	<path d="M67.525,51.519h-3.121v-1.351h3.121V51.519z"/>
	<path d="M70.735,47.182h-1.76v-1.179h1.76V47.182z M70.735,54.105h-1.76v-5.62h1.76V54.105z"/>
	<path d="M73.425,48.485l0.067,0.79c0.184-0.28,0.411-0.5,0.681-0.657c0.27-0.157,0.571-0.236,0.903-0.236
		c0.551,0,0.981,0.178,1.291,0.535c0.31,0.357,0.465,0.924,0.465,1.704v3.485h-1.756v-3.49c0-0.322-0.066-0.549-0.2-0.683
		s-0.33-0.2-0.589-0.2c-0.163,0-0.308,0.029-0.434,0.088c-0.126,0.059-0.235,0.14-0.325,0.244v4.041h-1.75v-5.62H73.425z"/>
</g>
<path d="M13.983,16.5c0.106-1.406,1.272-2.522,2.705-2.522s2.599,1.116,2.705,2.522h1.4c-0.108-2.182-1.896-3.922-4.104-3.922
	s-3.997,1.74-4.104,3.922H13.983z"/>
<rect x="7.609" y="27.042" width="18.609" height="2.042"/>
<rect x="7.583" y="31.083" width="16.635" height="2.042"/>
<rect x="15.26" y="51.083" width="10.958" height="2.042"/>
<rect x="3.583" y="20.125" width="1.005" height="37.375"/>
</svg>
